<svg xmlns="http://www.w3.org/2000/svg" enable-background="new 0 0 1000 1000" viewBox="0 0 1000 1000" id="PersonTradingBitcoin"><g opacity=".2" fill="#00090c" class="color000000 svgShape"><path fill="#0043b8" d="M413.29 843.02h41.38v68.7h-41.38zm125 0h41.38v68.7h-41.38z" class="color0092cc svgShape"></path><path fill="#0043b8" d="M644.77 143.2H348.18L138.46 352.92v296.59l209.72 209.72h296.59l209.72-209.72V352.92z" class="color0092cc svgShape"></path><path fill="#0052e1" d="M644.77 124.93H348.18L138.46 334.65v296.59l209.72 209.72h296.59l209.72-209.72V334.65z" class="color00a1e1 svgShape"></path><linearGradient id="a" x1="496.479" x2="496.479" y1="210.47" y2="738.251" gradientUnits="userSpaceOnUse"><stop offset="0" stop-color="#0052e1" class="stopColor00a1e1 svgShape"></stop><stop offset=".129" stop-color="#0455e3" class="stopColor04a3e3 svgShape"></stop><stop offset=".243" stop-color="#0e5de7" class="stopColor0eaae7 svgShape"></stop><stop offset=".352" stop-color="#216cef" class="stopColor21b5ef svgShape"></stop><stop offset=".457" stop-color="#3a80fa" class="stopColor3ac4fa svgShape"></stop><stop offset=".495" stop-color="#4589ff" class="stopColor45cbff svgShape"></stop><stop offset=".511" stop-color="#4185fd" class="stopColor41c8fd svgShape"></stop><stop offset=".634" stop-color="#246ff1" class="stopColor24b7f1 svgShape"></stop><stop offset=".757" stop-color="#105fe8" class="stopColor10abe8 svgShape"></stop><stop offset=".879" stop-color="#0455e3" class="stopColor04a3e3 svgShape"></stop><stop offset="1" stop-color="#0052e1" class="stopColor00a1e1 svgShape"></stop></linearGradient><path fill="url(#a)" d="M601.11 230.35H391.85L243.89 378.32v209.25l147.96 147.97h209.26l147.96-147.97V378.32z"></path><path fill="#0043b8" d="M627.05 167.72H365.91L181.26 352.38v261.14l184.65 184.65h261.14L811.7 613.52V352.38L627.05 167.72zm167.12 438.53L619.79 780.64H373.17L198.79 606.25V359.64l174.38-174.38h246.62l174.38 174.38v246.61z" class="color0092cc svgShape"></path><path fill="#ffffff" d="M628.31 801.22H364.64L178.2 614.78V351.11l186.45-186.45h263.67l186.45 186.45v263.67L628.31 801.22zm-261.14-6.11h258.61l182.86-182.86V353.64L625.78 170.78H367.17L184.31 353.64v258.61l182.86 182.86z" class="colorffffff svgShape"></path><path fill="#0043b8" d="M607.74 214.33H385.22L227.87 371.68v222.53l157.35 157.35h222.53L765.1 594.21V371.68L607.74 214.33zm141.33 373.24L601.11 735.54H391.85L243.89 587.57V378.32l147.97-147.97h209.26l147.97 147.97v209.25z" class="color0092cc svgShape"></path><path fill="#ffffff" d="M608.82 754.16H384.14l-.76-.76-158.12-158.11V370.6l158.88-158.88h224.68l.76.76L767.7 370.6v224.68L608.82 754.16zm-222.52-5.21h220.36l155.83-155.82V372.76L606.66 216.94H386.3L230.47 372.76v220.37L386.3 748.95z" class="colorffffff svgShape"></path><linearGradient id="b" x1="413.294" x2="454.673" y1="116.532" y2="116.532" gradientUnits="userSpaceOnUse"><stop offset="0" stop-color="#0052e1" class="stopColor00a1e1 svgShape"></stop><stop offset=".495" stop-color="#0052e1" class="stopColor00a1e1 svgShape"></stop><stop offset="1" stop-color="#0052e1" class="stopColor00a1e1 svgShape"></stop></linearGradient><path fill="url(#b)" d="M413.29 82.18h41.38v68.7h-41.38z"></path><linearGradient id="c" x1="538.289" x2="579.669" y1="116.532" y2="116.532" gradientUnits="userSpaceOnUse"><stop offset="0" stop-color="#0052e1" class="stopColor00a1e1 svgShape"></stop><stop offset=".495" stop-color="#0052e1" class="stopColor00a1e1 svgShape"></stop><stop offset="1" stop-color="#0052e1" class="stopColor00a1e1 svgShape"></stop></linearGradient><path fill="url(#c)" d="M538.29 82.18h41.38v68.7h-41.38z"></path><linearGradient id="d" x1="413.294" x2="454.673" y1="859.231" y2="859.231" gradientUnits="userSpaceOnUse"><stop offset="0" stop-color="#0052e1" class="stopColor00a1e1 svgShape"></stop><stop offset=".495" stop-color="#0052e1" class="stopColor00a1e1 svgShape"></stop><stop offset="1" stop-color="#0052e1" class="stopColor00a1e1 svgShape"></stop></linearGradient><path fill="url(#d)" d="M413.29 824.88h41.38v68.7h-41.38z"></path><linearGradient id="e" x1="538.289" x2="579.669" y1="859.231" y2="859.231" gradientUnits="userSpaceOnUse"><stop offset="0" stop-color="#0052e1" class="stopColor00a1e1 svgShape"></stop><stop offset=".495" stop-color="#0052e1" class="stopColor00a1e1 svgShape"></stop><stop offset="1" stop-color="#0052e1" class="stopColor00a1e1 svgShape"></stop></linearGradient><path fill="url(#e)" d="M538.29 824.88h41.38v68.7h-41.38z"></path></g><path fill="#5a6984" d="m458.37 640 .02 10.47-283.44.58-.01-10.47z" class="color6b5a84 svgShape"></path><path fill="#5a6984" d="M233.76 611.13H517.2v10.46H233.76z" transform="matrix(1 -.00254 .00254 1 -1.564 .955)" class="color6b5a84 svgShape"></path><path fill="#5a6984" d="M126.45 583.65h283.44v10.46H126.45z" transform="translate(-1.101 .503)" class="color6b5a84 svgShape"></path><path fill="#5a6984" d="m555.95 553.34.01 10.47-283.43.58-.03-10.47zm82.6-136.69c8.81-1.76 26.63-3.09 43.37-3.09 20.47 0 33.02 1.98 43.81 8.37 10.35 5.5 17.83 15.63 17.83 29.06 0 13.21-7.7 25.54-24.43 31.7v.44c16.95 4.63 29.5 17.39 29.5 36.55 0 13.43-6.17 24-15.41 31.49-10.78 8.58-28.84 13.43-58.34 13.43-16.52 0-28.84-1.11-36.33-2.21V416.65zm33.24 56.8h11.01c17.61 0 27.08-7.27 27.08-18.27 0-11.23-8.59-17.17-23.79-17.17-7.26 0-11.45.44-14.31.88v34.56zm0 65.83c3.3.44 7.26.44 12.99.44 15.19 0 28.62-5.73 28.62-21.36 0-14.97-13.43-20.92-30.16-20.92h-11.45v41.84z" class="color6b5a84 svgShape"></path><path fill="#5a6984" d="M655.41 392.29h15.65v36.89h-15.65zm33.54 0h15.65v36.89h-15.65z" class="color6b5a84 svgShape"></path><path fill="#80c0d6" d="M655.41 546.55h15.65v36.89h-15.65z" class="color80d2d6 svgShape"></path><path fill="#5a6984" d="M688.95 546.55h15.65v36.89h-15.65zM279.61 327.49c7.11-1.43 21.5-2.49 35-2.49 16.52 0 26.65 1.6 35.35 6.75 8.35 4.44 14.4 12.62 14.4 23.46 0 10.66-6.23 20.61-19.73 25.58v.36c13.68 3.74 23.81 14.04 23.81 29.5 0 10.84-4.97 19.37-12.44 25.41-8.7 6.93-23.28 10.84-47.09 10.84-13.33 0-23.27-.9-29.32-1.78V327.49zm26.83 45.84h8.88c14.22 0 21.85-5.86 21.85-14.75 0-9.06-6.93-13.86-19.19-13.86-5.86 0-9.23.36-11.55.71v27.9zm0 53.12c2.67.36 5.86.36 10.49.36 12.26 0 23.1-4.62 23.1-17.24 0-12.08-10.84-16.88-24.34-16.88h-9.24v33.76z" class="color6b5a84 svgShape"></path><path fill="#5a6984" d="M293.22 307.83h12.63v29.77h-12.63zm27.06 0h12.63v29.77h-12.63zm-27.06 124.49h12.63v29.77h-12.63zm27.06 0h12.63v29.77h-12.63z" class="color6b5a84 svgShape"></path><path fill="#cfd6d9" d="M648.42 792.87c0 10.14-67.84 18.36-151.54 18.36-83.69 0-151.54-8.22-151.54-18.36 0-10.14 67.84-18.36 151.54-18.36 83.7 0 151.54 8.22 151.54 18.36z" opacity=".75" class="colord0cfd9 svgShape"></path><path fill="#3dc5f3" d="M691.97 605.26c0 106.65-86.45 193.1-193.1 193.1-106.65 0-193.11-86.45-193.11-193.1 0-106.65 86.46-193.11 193.11-193.11 106.65 0 193.1 86.46 193.1 193.11z" class="colorf3a43d svgShape"></path><path fill="#50d2fe" d="M682.16 605.25c0 101.23-82.06 183.29-183.28 183.29-101.23 0-183.3-82.06-183.3-183.29 0-101.23 82.06-183.29 183.3-183.29 101.22 0 183.28 82.06 183.28 183.29z" class="colorfed150 svgShape"></path><path fill="#3dc5f3" d="M643.3 605.26c0 79.77-64.66 144.43-144.43 144.43-79.77 0-144.44-64.66-144.44-144.43 0-79.77 64.67-144.44 144.44-144.44 79.76-.01 144.43 64.67 144.43 144.44z" class="colorf3a43d svgShape"></path><path fill="#84e0ff" d="M637.22 611.34c0 76.41-61.94 138.35-138.34 138.35-76.42 0-138.36-61.95-138.36-138.35 0-76.41 61.94-138.35 138.36-138.35 76.39-.01 138.34 61.94 138.34 138.35z" class="colorffe984 svgShape"></path><path fill="#3dc5f3" d="M446.57 531.61c9.27-1.86 28.06-3.25 45.68-3.25 21.56 0 34.79 2.08 46.15 8.81 10.9 5.8 18.78 16.47 18.78 30.61 0 13.92-8.12 26.9-25.74 33.4v.47c17.86 4.87 31.07 18.32 31.07 38.5 0 14.14-6.49 25.27-16.23 33.16-11.36 9.04-30.38 14.15-61.46 14.15-17.39 0-30.37-1.17-38.26-2.32V531.61zm35.01 59.83h11.59c18.55 0 28.53-7.66 28.53-19.25 0-11.83-9.05-18.09-25.05-18.09-7.65 0-12.06.46-15.07.93v36.41zm0 69.34c3.48.46 7.65.46 13.68.46 16 0 30.15-6.03 30.15-22.5 0-15.77-14.15-22.04-31.77-22.04h-12.06v44.08z" class="colorf3a43d svgShape"></path><path fill="#3dc5f3" d="M464.34 505.95h16.48v38.86h-16.48zm35.31 0h16.49v38.86h-16.49zm-35.31 162.5h16.48v38.85h-16.48zm35.31 0h16.49v38.85h-16.49z" class="colorf3a43d svgShape"></path><path fill="#b6e7f7" d="M353.88 466.7c2.32-2.44 6.15-11.98 6.15-11.98s4.32 9.32 6.77 11.64c2.44 2.32 11.99 6.15 11.99 6.15s-9.32 4.33-11.65 6.77c-2.31 2.44-6.15 11.98-6.15 11.98s-4.33-9.32-6.77-11.64c-2.44-2.32-11.98-6.15-11.98-6.15s9.33-4.33 11.64-6.77zm51.7-60.84c2.32-2.44 6.14-11.98 6.14-11.98s4.33 9.32 6.78 11.64c2.45 2.32 11.98 6.14 11.98 6.14s-9.31 4.33-11.63 6.77c-2.32 2.45-6.15 11.98-6.15 11.98s-4.33-9.32-6.77-11.64c-2.45-2.32-11.98-6.14-11.98-6.14s9.31-4.32 11.63-6.77zM280.86 512.54c2.32-2.44 6.15-11.98 6.15-11.98s4.32 9.32 6.77 11.64c2.45 2.32 11.98 6.14 11.98 6.14s-9.32 4.33-11.64 6.77c-2.31 2.44-6.15 11.98-6.15 11.98s-4.33-9.32-6.77-11.64c-2.44-2.31-11.98-6.14-11.98-6.14s9.33-4.32 11.64-6.77zm18.27 74.24c2.32-2.44 6.15-11.98 6.15-11.98s4.33 9.32 6.77 11.64c2.44 2.32 11.98 6.15 11.98 6.15s-9.33 4.33-11.64 6.77c-2.32 2.44-6.15 11.98-6.15 11.98s-4.32-9.32-6.77-11.64c-2.45-2.31-11.98-6.15-11.98-6.15s9.32-4.32 11.64-6.77z" class="colorf2f7b6 svgShape"></path><path fill="#5a6984" d="M264.55 703.3c0 11.46-7.25 17.44-15.17 17.44-8.34 0-14.91-6.23-14.91-16.52 0-9.78 5.98-17.19 15.34-17.19 9.43 0 14.74 6.91 14.74 16.27zm-20.57.59c0 5.73 1.94 9.86 5.65 9.86 3.62 0 5.38-3.71 5.38-9.86 0-5.56-1.51-9.86-5.47-9.86-3.78 0-5.56 4.38-5.56 9.86zm6.07 39.77 31.44-56.63h6.91l-31.52 56.63h-6.83zm53.94-17.61c0 11.46-7.25 17.44-15.17 17.44-8.25 0-14.83-6.24-14.91-16.51 0-9.78 5.98-17.19 15.34-17.19 9.43 0 14.74 6.91 14.74 16.26zm-20.48.59c-.08 5.73 1.85 9.86 5.56 9.86 3.62 0 5.4-3.71 5.4-9.86 0-5.56-1.44-9.86-5.4-9.86-3.87 0-5.56 4.39-5.56 9.86zm460.45-115.38c0 11.46-7.25 17.44-15.17 17.44-8.34 0-14.91-6.24-14.91-16.52 0-9.78 5.98-17.19 15.34-17.19 9.42 0 14.74 6.91 14.74 16.27zm-20.57.59c0 5.73 1.95 9.86 5.65 9.86 3.63 0 5.39-3.71 5.39-9.86 0-5.56-1.51-9.86-5.47-9.86-3.8 0-5.57 4.38-5.57 9.86zm6.07 39.77 31.43-56.63h6.91l-31.52 56.63h-6.82zm53.93-17.61c0 11.46-7.24 17.44-15.17 17.44-8.26 0-14.83-6.24-14.92-16.52 0-9.78 5.98-17.19 15.34-17.19 9.44.01 14.75 6.92 14.75 16.27zm-20.47.59c-.09 5.73 1.85 9.86 5.56 9.86 3.63 0 5.4-3.7 5.4-9.86 0-5.56-1.43-9.86-5.4-9.86-3.88 0-5.56 4.39-5.56 9.86z" class="color6b5a84 svgShape"></path><path fill="#a7e9ff" d="m534.85 539.33 5.62 11.05-10.78 3.51-6.56-14.56zm-121.3 3.61-5.77 10.95-8.5-7.94 8.07-13.67z" class="colorffd9a7 svgShape"></path><path fill="#3590af" d="M578.82 375.9s-8.82 27.74-48.74 34.14l-66.62 38.64s-23.26 68.33-45.24 92.42c-8.42 9.23-17.97-2.2-16.96-7.04 7.12-34.08 22.31-101.85 51.04-128.43 24.53-22.69 52.46-29.72 52.46-29.72h74.06z" class="colorafae35 svgShape"></path><path fill="#44b3d8" d="M578.82 375.9s14.06 47.19-29.05 57.23l-51.45 6.02s33.94 66.93 39.93 98.92c.87 4.65-11.98 11.31-17.34 5.89-24.04-24.29-75.3-84.15-61.14-121.88 7.78-20.73 75-39.16 75-39.16l44.05-7.02z" class="colord8d844 svgShape"></path><path fill="#5a6984" d="M527.49 548.99s6.67 4.04 10.3-3.88c0 0 13.58 13.18 3.15 21.59s-31.99 16.56-36.68 12.55c-6.74-5.76 10.34-20.97 23.23-30.26zm-126.59-7s1.33 8.02 9.71 6.97c0 0-2.57 20.94-15.28 15.9-12.7-5.04-31.65-20.65-31.2-27.29.66-9.56 21.94-2.42 36.77 4.42z" class="color6b5a84 svgShape"></path><path fill="#91cee2" d="M512.41 267.39c3.18-2.32 9.8-5.76 12.23 2.71 2.42 8.48-23.08 52.14-30.94 58.75-7.85 6.61-59.71 20.68-59.71 20.68s-5.62-.61-1.53-7.41l49.28-22.24c-.01-.01 19.67-44.49 30.67-52.49z" class="color9991e2 svgShape"></path><path fill="#a6dff2" d="M555.23 266.52c12.26 10.23 22.07 34.17 24.11 111.44.45 17-77.32 13.43-77-3.57.86-45.23-16.08-75.93 6.91-105.29.01 0 21.67-22.85 45.98-2.58z" class="colorb1a6f2 svgShape"></path><path fill="#8fd7ef" d="M535.88 237.52s-4.73 12.63 0 20.71c3.02 5.14-19.69 22.42-19.21 15.5.63-8.93 4.88-14.41.04-24.45l19.17-11.76z" class="colorefc18f svgShape"></path><path fill="#a8e9ff" d="M516.02 216.09c-7.21 7.49-13.79 39.27-5.5 45.78 3.61 2.83 17.7-1.27 26.02-15.49 3.43-5.84 7.48-16.66 1.21-27.06-2.83-4.72-13.34-11.96-21.73-3.23z" class="colorffd9a8 svgShape"></path><path fill="#344e9b" d="M503.7 219.75s3.86 5.4 15.78 6.62c11.91 1.22 13.91.33 12.84 3.22-3.12 8.46 5.74 8.42 1.91 18.53-3.83 10.11 3.79 1.04 4.85-.5 1.05-1.54 10.85-14.09 3.38-28.09-7.45-14.02-28.69-8.24-38.76.22z" class="color9b4d34 svgShape"></path><path fill="#baeeff" d="M440.37 385.17h112.21v8.49H440.37z" class="colorffe9ba svgShape"></path><path fill="#071a52" d="M508.88 393.67h-79.91l-11.75-52.53h75.9z" class="color725559 svgShape"></path><path fill="#8fd7ef" d="M512.96 382.87s-22.12 7.24-15.11 9.15c7.01 1.91 13.02 3.23 20.81-5.26l-5.7-3.89z" class="colorefc18f svgShape"></path><path fill="#91cee2" d="M542.94 277.6c1.35-3.7 5.75-11.11 11.65-4.56 9.36 10.41 9.84 56.16 7 66.03-2.84 9.87-43.58 49.07-43.58 49.07s-5.97-.24-5.97-6.12l35.1-47.89c.01 0-8.89-43.75-4.2-56.53z" class="color9991e2 svgShape"></path><path fill="#ebeeef" d="m517.29 275.17-7.83 14.6 7.83 11.61 9.15-13.1z" class="colorf7f7fc svgShape"></path><path fill="#ebeeef" d="m517.32 300.56-11.86 50.47 5.65 23.32 12.74-20.68z" class="colorf7f7fc svgShape"></path></svg>