<svg xmlns="http://www.w3.org/2000/svg" enable-background="new 0 0 510 510" viewBox="0 0 510 510" id="LogOut"><path d="M307.591,166.311c-5.167-1.949-10.937,0.66-12.886,5.827c-1.949,5.167,0.659,10.937,5.827,12.886
			c49.929,18.836,83.475,67.36,83.475,120.747c0,71.135-57.872,129.007-129.007,129.007s-129.007-57.872-129.007-129.007
			c0-53.386,33.546-101.911,83.476-120.747c5.167-1.95,7.776-7.719,5.827-12.886c-1.95-5.167-7.72-7.775-12.886-5.827
			c-28.038,10.578-52.012,29.172-69.331,53.773c-17.719,25.171-27.085,54.8-27.085,85.686c0,82.163,66.844,149.007,149.007,149.007
			s149.007-66.844,149.007-149.007c0-30.886-9.366-60.515-27.085-85.686C359.603,195.483,335.629,176.889,307.591,166.311z" fill="#ffffff" class="color000000 svgShape"></path><path d="M208.753,123.031c4.313,3.45,10.605,2.75,14.056-1.562L245,93.73V265c0,5.522,4.477,10,10,10
			c5.522,0,10-4.478,10-10V93.73l22.191,27.739c1.976,2.469,4.881,3.753,7.814,3.753c2.191,0,4.397-0.717,6.241-2.192
			c4.313-3.45,5.012-9.743,1.562-14.056L263.724,60.12C262.012,57.067,258.749,55,255,55c-3.75,0-7.013,2.067-8.725,5.121
			l-39.084,48.855C203.741,113.289,204.44,119.581,208.753,123.031z" fill="#ffffff" class="color000000 svgShape"></path><path d="M435.465,75.056C387.4,26.992,323.495,0.521,255.521,0.521c-67.974,0-131.879,26.47-179.943,74.535
			C27.513,123.121,1.043,187.026,1.043,255c0,67.973,26.47,131.878,74.535,179.943c48.064,48.064,111.97,74.535,179.943,74.535
			s131.879-26.471,179.943-74.535S510,322.974,510,255C510,187.026,483.529,123.121,435.465,75.056z M255.521,489.479
			L255.521,489.479C126.229,489.479,21.043,384.292,21.043,255c0-129.292,105.187-234.478,234.479-234.478S490,125.708,490,255
			C490,384.292,384.813,489.479,255.521,489.479z" fill="#ffffff" class="color000000 svgShape"></path></svg>